<svg xmlns="http://www.w3.org/2000/svg" xmlns:xlink="http://www.w3.org/1999/xlink" version="1.1" x="0px" y="0px" viewBox="0 0 100 125" enable-background="new 0 0 100 100" xml:space="preserve"><path fill="rgb(40,44,52);" fill-opacity="0.7" d="M39,10c-4.8,0.2-7.3,4.4-7.3,9.7c0,0,0,12.9,0,21.8s-4.9,9.5-4.9,9.5L26.2,51l0.6,0.1c0,0,4.9,0.6,4.9,9.5   s0,21.8,0,21.8c0,5.3,2.5,9.5,7.3,9.7c0.2,0,0.5,0,0.7,0c0,0-4.5-2-4.5-10.3V71.4V60.8c0-7.7-3.6-9.5-6.1-9.8   c2.5-0.3,6.1-2.1,6.1-9.8V30.6V20.2c0-8.3,4.5-10.3,4.5-10.3C39.5,9.9,39.3,9.9,39,10z"/></svg>